<?xml version="1.0" encoding="utf-8"?>
<!-- Generator: Adobe Illustrator 27.0.0, SVG Export Plug-In . SVG Version: 6.00 Build 0)  -->
<svg version="1.1" id="Tweezer_Top-Bottom" xmlns="http://www.w3.org/2000/svg" xmlns:xlink="http://www.w3.org/1999/xlink" x="0px"
	 y="0px" viewBox="0 0 582 600" style="enable-background:new 0 0 582 600;" xml:space="preserve">
<style type="text/css">
	.st0{fill:none;}
	.st1{fill:#FFFFFF;}
	.st2{fill:#12225C;}
	.st3{fill:url(#SVGID_1_);}
	.st4{fill:url(#SVGID_00000168098989358598794760000008229174048169393572_);}
	.st5{fill:url(#SVGID_00000063599935206718150800000000228811313321073562_);}
	.st6{fill:url(#SVGID_00000096060501464148763890000011016616388880218035_);}
	.st7{fill:none;stroke:url(#SVGID_00000054945796747362524380000004045357645760816033_);stroke-width:1.25;stroke-miterlimit:10;}
	.st8{fill:none;stroke:url(#SVGID_00000013161077012376608790000008427096822072992384_);stroke-width:2;stroke-miterlimit:10;}
	.st9{fill:none;stroke:url(#SVGID_00000169527086703583527560000010580585757213968547_);stroke-width:1.25;stroke-miterlimit:10;}
	.st10{fill:none;stroke:url(#SVGID_00000145054650347851319180000013712640047723732902_);stroke-width:2;stroke-miterlimit:10;}
	.st11{fill:none;stroke:url(#SVGID_00000075867515037227202310000015056855056111168703_);stroke-width:1.25;stroke-miterlimit:10;}
	.st12{fill:none;stroke:url(#SVGID_00000118387394651507695270000009513217914459154873_);stroke-width:2;stroke-miterlimit:10;}
	.st13{fill:url(#SVGID_00000029758275225054509790000013424202013129430691_);}
	.st14{fill:url(#SVGID_00000083776129366488583720000012206913247349148324_);}
	.st15{fill:url(#SVGID_00000103967719175391048130000014863846762477489566_);}
	.st16{fill:url(#SVGID_00000151527007102355002580000014576433801453597102_);}
	.st17{fill:url(#SVGID_00000122723006440666289080000012319061347520011427_);}
	.st18{fill:url(#SVGID_00000016038649230754334040000000697109077477118361_);}
	.st19{fill:url(#SVGID_00000028292475166805117190000007322478529971515324_);}
	.st20{fill:url(#SVGID_00000034079627999934201580000017866672365238785711_);}
	.st21{fill:url(#SVGID_00000147207025105725247460000009903871439992588181_);}
	.st22{fill:url(#SVGID_00000148644754500603571440000011108715344086507655_);}
	.st23{fill:url(#SVGID_00000028283023525350137740000004934238783383009171_);}
	.st24{fill:none;stroke:url(#SVGID_00000035511298910920469640000008425164182313333431_);stroke-width:1.25;stroke-miterlimit:10;}
	.st25{fill:#B40000;}
	.st26{fill:url(#SVGID_00000177442719583205624990000007586943374894453142_);}
	.st27{fill:url(#SVGID_00000165216246021470499020000013880988341288324270_);}
	.st28{fill:url(#SVGID_00000075143821315284202000000003871545643552547251_);}
	.st29{fill:url(#SVGID_00000029733175159841825140000004661564717726891677_);}
	.st30{fill:url(#SVGID_00000017474600570457475050000010500828572231584183_);}
	.st31{fill:url(#SVGID_00000143586811515810266150000016040681431230652820_);}
	.st32{fill:url(#SVGID_00000061447076580914140910000004475491122429496732_);}
	.st33{fill:url(#SVGID_00000053521466873546507270000006413671051318804923_);}
	.st34{fill:url(#SVGID_00000065076277203722009540000015458991426994336444_);}
	.st35{fill:url(#SVGID_00000093866427059372761520000007123161201124383388_);}
	.st36{fill:url(#SVGID_00000154410615143056534140000008524370069760359828_);}
	.st37{fill:url(#SVGID_00000106850544473289662290000004218327972966703249_);}
	.st38{fill:url(#SVGID_00000080173808517972801740000004566075481329666701_);}
	.st39{fill:url(#SVGID_00000119823907584755243730000011432379058057319078_);}
	.st40{fill:url(#SVGID_00000065061396562365562670000003946980212420555145_);}
	.st41{fill:url(#SVGID_00000044157036704923832290000002011523195134309512_);}
	.st42{fill:url(#SVGID_00000139984831744723541600000013046842930537270694_);}
	.st43{fill:url(#SVGID_00000133508513608459006050000013612111726643320986_);}
	.st44{fill:url(#SVGID_00000173869300827403054310000001093360310905977261_);}
	.st45{fill:url(#SVGID_00000057111755838648708820000002102407381781544626_);}
	.st46{fill:url(#SVGID_00000163762476649278839510000012040613470287131010_);}
	.st47{fill:url(#SVGID_00000088130537658690779580000018427834579123732619_);}
	.st48{fill:url(#SVGID_00000148632257468035653720000003393310726544772001_);}
	.st49{fill:url(#SVGID_00000009569826899333546930000015279499934862810018_);}
	.st50{fill:url(#SVGID_00000023984300409722749520000005269987113778229663_);}
	.st51{fill:url(#SVGID_00000031185307464838382040000002288553688067180953_);}
	.st52{fill:url(#SVGID_00000083046927291711622400000002264448916054021823_);}
	.st53{fill:url(#SVGID_00000047752819105286489470000017370359276274334892_);}
	.st54{fill:url(#SVGID_00000017515537835917359240000012777091458597827501_);}
	.st55{fill:url(#SVGID_00000156565344860078490900000012364253083854250422_);}
	.st56{fill:url(#SVGID_00000124867207676022641410000016680635753493548940_);}
	.st57{fill:url(#SVGID_00000085972793434439928120000009725086028805038994_);}
	.st58{fill:url(#SVGID_00000107574007118944240630000007690980498085733277_);}
	.st59{fill:url(#SVGID_00000059309728934253336180000000080747799614332037_);}
	.st60{fill:url(#SVGID_00000115501197375540697980000011937930203845303695_);}
	.st61{fill:url(#SVGID_00000162318325989848414460000012910934879474279587_);}
	.st62{fill:url(#SVGID_00000080178370747445861260000013727879302603954830_);}
	.st63{fill:url(#SVGID_00000051354454481864437440000000246441446690460599_);}
	.st64{fill:url(#SVGID_00000128462302052200013320000007307370720337940886_);}
	.st65{fill:url(#SVGID_00000132057075526913745000000009310078359051870625_);}
	.st66{fill:url(#SVGID_00000078022966611942880210000014166581551234194361_);}
	.st67{fill:url(#SVGID_00000042726516354661219120000007912189348339637153_);}
	.st68{fill:url(#SVGID_00000018948332923520737920000006638966732117936520_);}
	.st69{fill:url(#SVGID_00000148649879318532354320000000451377737340016034_);}
	.st70{fill:url(#SVGID_00000026154879169738108530000009968824501340782981_);}
	.st71{fill:url(#SVGID_00000025400743018245395610000018372665695338647438_);}
	.st72{fill:url(#SVGID_00000088124669945416513470000017593743668247853754_);}
	.st73{fill:url(#SVGID_00000063607724384833315910000004354551096501574812_);}
	.st74{fill:url(#SVGID_00000127747928619736431310000003915701456761801101_);}
	.st75{fill:url(#SVGID_00000039820748328266549700000000319021114858381208_);}
	.st76{fill:url(#SVGID_00000085960624816806249060000004141087178926861189_);}
	.st77{fill:url(#SVGID_00000092433485538190195180000009665371287211275951_);}
	.st78{fill:url(#SVGID_00000178202320585659112540000005989536230722899102_);}
	.st79{fill:url(#SVGID_00000059306053026461437070000001844223719882891171_);}
	.st80{fill:none;stroke:url(#SVGID_00000090982134501464862240000000613041122429128096_);stroke-width:1.25;stroke-miterlimit:10;}
	.st81{fill:#007000;}
	.st82{fill:url(#SVGID_00000079449516204113050980000016681363319779317153_);}
</style>
<pattern  x="-1204" y="388.41" width="104" height="104" patternUnits="userSpaceOnUse" id="New_Pattern_Swatch_1" viewBox="0 -104 104 104" style="overflow:visible;">
	<g>
		<rect y="-104" class="st0" width="104" height="104"/>
		<g>
			<polygon class="st0" points="0,-104 104,-104 104,0 0,0 			"/>
			<polygon class="st1" points="104,-104 0,-104 0,0 104,0 			"/>
		</g>
	</g>
</pattern>
<rect class="st2" width="582" height="600"/>
<g>
	<g>
		<rect x="239.2" y="68.844" class="st0" width="104.921" height="30.475"/>
		<pattern  id="SVGID_1_" xlink:href="#New_Pattern_Swatch_1" patternTransform="matrix(1 0 0 1 -47.7827 -73.3991)">
		</pattern>
		<path class="st3" d="M279.915,74.248c1.549,0.784,2.734,1.914,3.556,3.388s1.232,3.229,1.232,5.264
			c0,2.016-0.411,3.757-1.232,5.222c-0.821,1.466-2.007,2.585-3.556,3.36c-1.55,0.775-3.407,1.162-5.572,1.162h-5.796V73.072h5.796
			C276.508,73.072,278.365,73.463,279.915,74.248z M280.572,88.877c1.429-1.428,2.143-3.42,2.143-5.978
			c0-2.576-0.714-4.587-2.143-6.034c-1.428-1.447-3.505-2.17-6.229-2.17h-3.836V91.02h3.836
			C277.067,91.02,279.145,90.306,280.572,88.877z"/>
		
			<pattern  id="SVGID_00000047756029369648038760000003540379678546738839_" xlink:href="#New_Pattern_Swatch_1" patternTransform="matrix(1 0 0 1 -47.7827 -73.3991)">
		</pattern>
		<path style="fill:url(#SVGID_00000047756029369648038760000003540379678546738839_);" d="M291.128,91.901
			c-1.147-0.644-2.054-1.558-2.716-2.744c-0.663-1.186-0.994-2.571-0.994-4.158c0-1.586,0.336-2.972,1.008-4.158
			c0.673-1.186,1.587-2.1,2.744-2.744s2.455-0.966,3.893-0.966c1.437,0,2.739,0.322,3.905,0.966
			c1.167,0.644,2.082,1.559,2.744,2.744c0.663,1.186,0.994,2.571,0.994,4.158c0,1.568-0.336,2.95-1.008,4.144
			c-0.672,1.195-1.596,2.114-2.772,2.758c-1.176,0.644-2.482,0.966-3.92,0.966S292.276,92.545,291.128,91.901z M297.807,90.474
			c0.858-0.457,1.554-1.148,2.086-2.072c0.531-0.924,0.798-2.058,0.798-3.402c0-1.344-0.262-2.478-0.784-3.402
			c-0.522-0.924-1.214-1.614-2.072-2.072c-0.858-0.457-1.792-0.686-2.8-0.686s-1.941,0.229-2.8,0.686
			c-0.859,0.458-1.545,1.148-2.059,2.072c-0.514,0.924-0.77,2.058-0.77,3.402c0,1.344,0.256,2.478,0.77,3.402
			c0.514,0.924,1.194,1.615,2.045,2.072c0.849,0.458,1.777,0.686,2.785,0.686C296.015,91.16,296.947,90.931,297.807,90.474z"/>
		
			<pattern  id="SVGID_00000102542229100288522110000013888666562118180540_" xlink:href="#New_Pattern_Swatch_1" patternTransform="matrix(1 0 0 1 -47.7827 -73.3991)">
		</pattern>
		<path style="fill:url(#SVGID_00000102542229100288522110000013888666562118180540_);" d="M308.361,96.255
			c0,1.232-0.308,2.142-0.924,2.73c-0.615,0.588-1.54,0.882-2.771,0.882h-1.372v-1.68h1.063c0.729,0,1.251-0.154,1.568-0.462
			s0.476-0.826,0.476-1.554V77.355h1.96V96.255z M306.401,74.052c-0.279-0.28-0.42-0.625-0.42-1.036s0.141-0.751,0.42-1.022
			c0.28-0.271,0.616-0.406,1.009-0.406c0.392,0,0.723,0.136,0.993,0.406s0.406,0.611,0.406,1.022s-0.136,0.756-0.406,1.036
			c-0.271,0.28-0.602,0.42-0.993,0.42C307.018,74.472,306.682,74.332,306.401,74.052z"/>
		
			<pattern  id="SVGID_00000070811678596275939170000000918205224928459961_" xlink:href="#New_Pattern_Swatch_1" patternTransform="matrix(1 0 0 1 -47.7827 -73.3991)">
		</pattern>
		<path style="fill:url(#SVGID_00000070811678596275939170000000918205224928459961_);" d="M312.813,74.052
			c-0.28-0.28-0.42-0.625-0.42-1.036s0.14-0.751,0.42-1.022s0.616-0.406,1.008-0.406c0.393,0,0.729,0.136,1.008,0.406
			c0.28,0.271,0.421,0.611,0.421,1.022s-0.141,0.756-0.421,1.036c-0.279,0.28-0.615,0.42-1.008,0.42
			C313.43,74.472,313.094,74.332,312.813,74.052z M314.802,77.355v15.288h-1.96V77.355H314.802z"/>
	</g>
	<g>
		
			<pattern  id="SVGID_00000096021078329668073640000010325618875287640969_" xlink:href="#New_Pattern_Swatch_1" patternTransform="matrix(1.4314 0 0 1.4314 2759.3735 3469.2114)">
		</pattern>
		
			<line style="fill:none;stroke:url(#SVGID_00000096021078329668073640000010325618875287640969_);stroke-width:1.25;stroke-miterlimit:10;" x1="291.66" y1="346.016" x2="291.66" y2="461.687"/>
		
			<pattern  id="SVGID_00000012473744637363299620000003192586073352618141_" xlink:href="#New_Pattern_Swatch_1" patternTransform="matrix(-2.629508e-16 -1.4314 1.4314 -2.629508e-16 5029.7344 -18040.9258)">
		</pattern>
		
			<line style="fill:none;stroke:url(#SVGID_00000012473744637363299620000003192586073352618141_);stroke-width:2;stroke-miterlimit:10;" x1="259.806" y1="461.687" x2="323.514" y2="461.687"/>
	</g>
	<g>
		
			<pattern  id="SVGID_00000024720155501938742230000015468428776684091323_" xlink:href="#New_Pattern_Swatch_1" patternTransform="matrix(-1.4314 0 0 -1.4314 -16578.918 -20194.2715)">
		</pattern>
		
			<line style="fill:none;stroke:url(#SVGID_00000024720155501938742230000015468428776684091323_);stroke-width:1.25;stroke-miterlimit:10;" x1="425.831" y1="461.687" x2="425.831" y2="346.016"/>
		
			<pattern  id="SVGID_00000147936081904021769280000016670525890064630403_" xlink:href="#New_Pattern_Swatch_1" patternTransform="matrix(2.629508e-16 1.4314 -1.4314 2.629508e-16 -18849.2793 1315.8661)">
		</pattern>
		
			<line style="fill:none;stroke:url(#SVGID_00000147936081904021769280000016670525890064630403_);stroke-width:2;stroke-miterlimit:10;" x1="457.685" y1="346.016" x2="393.978" y2="346.016"/>
	</g>
	<g>
		
			<pattern  id="SVGID_00000072989012334148174960000004980272818635981480_" xlink:href="#New_Pattern_Swatch_1" patternTransform="matrix(-1.3313 0 0 -1.3313 -15904.6494 -19326.8398)">
		</pattern>
		
			<line style="fill:none;stroke:url(#SVGID_00000072989012334148174960000004980272818635981480_);stroke-width:1.25;stroke-miterlimit:10;" x1="157.489" y1="457.641" x2="157.489" y2="350.062"/>
		
			<pattern  id="SVGID_00000023991319327719771900000010876867692830863272_" xlink:href="#New_Pattern_Swatch_1" patternTransform="matrix(2.629508e-16 1.4314 -1.4314 2.629508e-16 -18968.752 1367.6328)">
		</pattern>
		
			<line style="fill:none;stroke:url(#SVGID_00000023991319327719771900000010876867692830863272_);stroke-width:2;stroke-miterlimit:10;" x1="189.343" y1="397.783" x2="125.635" y2="397.783"/>
	</g>
	<g>
		<rect x="325.807" y="267.038" class="st0" width="104.921" height="20.032"/>
		
			<pattern  id="SVGID_00000089569040167070042970000000905812376457054370_" xlink:href="#New_Pattern_Swatch_1" patternTransform="matrix(1 0 0 1 38.8241 -83.2047)">
		</pattern>
		<path style="fill:url(#SVGID_00000089569040167070042970000000905812376457054370_);" d="M345.374,274.725
			c0.383,0.457,0.574,0.989,0.574,1.596c0,0.495-0.124,0.94-0.371,1.337s-0.608,0.709-1.085,0.938
			c-0.476,0.229-1.045,0.343-1.708,0.343h-3.388v-9.786h3.29c0.989,0,1.743,0.229,2.261,0.687c0.519,0.457,0.777,1.05,0.777,1.777
			c0,0.607-0.164,1.1-0.49,1.477c-0.327,0.379-0.747,0.643-1.26,0.791C344.525,273.988,344.991,274.267,345.374,274.725z
			 M340.376,273.479h2.282c0.663,0,1.174-0.156,1.533-0.47c0.359-0.312,0.539-0.744,0.539-1.295c0-0.541-0.18-0.965-0.539-1.273
			s-0.885-0.462-1.575-0.462h-2.24V273.479z M344.373,277.609c0.396-0.336,0.596-0.798,0.596-1.386c0-0.589-0.208-1.058-0.623-1.407
			c-0.416-0.35-0.974-0.525-1.673-0.525h-2.297v3.822h2.339C343.424,278.113,343.977,277.945,344.373,277.609z"/>
		
			<pattern  id="SVGID_00000123434124897264176830000014775038466995862955_" xlink:href="#New_Pattern_Swatch_1" patternTransform="matrix(1 0 0 1 38.8241 -83.2047)">
		</pattern>
		<path style="fill:url(#SVGID_00000123434124897264176830000014775038466995862955_);" d="M354.642,275.496H348.3
			c0.028,0.578,0.168,1.072,0.42,1.483s0.583,0.722,0.994,0.931c0.41,0.211,0.858,0.315,1.344,0.315
			c0.635,0,1.169-0.154,1.604-0.462c0.434-0.309,0.721-0.724,0.86-1.246h1.036c-0.187,0.746-0.586,1.355-1.197,1.826
			c-0.611,0.473-1.379,0.707-2.303,0.707c-0.719,0-1.362-0.16-1.932-0.482s-1.016-0.779-1.337-1.372
			c-0.322-0.593-0.483-1.286-0.483-2.079s0.159-1.488,0.477-2.086c0.316-0.598,0.76-1.055,1.329-1.371
			c0.569-0.318,1.219-0.477,1.946-0.477c0.729,0,1.365,0.158,1.911,0.477c0.546,0.316,0.966,0.744,1.26,1.28
			s0.441,1.132,0.441,1.785C354.67,275.061,354.66,275.318,354.642,275.496z M353.333,273.241c-0.238-0.401-0.562-0.704-0.974-0.909
			c-0.41-0.205-0.858-0.309-1.344-0.309c-0.728,0-1.349,0.233-1.862,0.7c-0.513,0.467-0.798,1.124-0.854,1.974h5.376
			C353.685,274.128,353.57,273.642,353.333,273.241z"/>
		
			<pattern  id="SVGID_00000011007907342271089230000006164874109635084934_" xlink:href="#New_Pattern_Swatch_1" patternTransform="matrix(1 0 0 1 38.8241 -83.2047)">
		</pattern>
		<path style="fill:url(#SVGID_00000011007907342271089230000006164874109635084934_);" d="M356.482,273.039
			c0.312-0.594,0.747-1.051,1.303-1.373c0.555-0.322,1.183-0.482,1.883-0.482c0.728,0,1.355,0.168,1.883,0.504
			s0.907,0.766,1.141,1.288v-1.681h0.98v7.645h-0.98v-1.693c-0.242,0.521-0.627,0.953-1.154,1.295
			c-0.527,0.34-1.155,0.51-1.884,0.51c-0.69,0-1.313-0.162-1.868-0.489c-0.556-0.327-0.99-0.788-1.303-1.386
			s-0.469-1.288-0.469-2.072S356.17,273.63,356.482,273.039z M362.313,273.494c-0.252-0.467-0.595-0.826-1.028-1.078
			c-0.435-0.252-0.913-0.379-1.436-0.379c-0.541,0-1.026,0.121-1.456,0.364c-0.429,0.243-0.768,0.595-1.015,1.058
			c-0.247,0.461-0.371,1.01-0.371,1.645c0,0.625,0.124,1.174,0.371,1.645c0.247,0.472,0.586,0.831,1.015,1.078
			c0.43,0.248,0.915,0.371,1.456,0.371c0.522,0,1.001-0.126,1.436-0.378c0.434-0.252,0.776-0.61,1.028-1.078
			c0.252-0.466,0.378-1.008,0.378-1.624C362.691,274.501,362.565,273.96,362.313,273.494z"/>
		
			<pattern  id="SVGID_00000072247507364274904200000014778505681904458387_" xlink:href="#New_Pattern_Swatch_1" patternTransform="matrix(1 0 0 1 38.8241 -83.2047)">
		</pattern>
		<path style="fill:url(#SVGID_00000072247507364274904200000014778505681904458387_);" d="M367.879,271.546
			c0.443-0.261,0.987-0.392,1.631-0.392v1.022h-0.266c-0.71,0-1.279,0.191-1.708,0.574c-0.43,0.383-0.645,1.021-0.645,1.918v4.27
			h-0.979v-7.645h0.979v1.358C367.106,272.177,367.436,271.808,367.879,271.546z"/>
		
			<pattern  id="SVGID_00000013890531667709622150000008529058560906092179_" xlink:href="#New_Pattern_Swatch_1" patternTransform="matrix(1 0 0 1 38.8241 -83.2047)">
		</pattern>
		<path style="fill:url(#SVGID_00000013890531667709622150000008529058560906092179_);" d="M370.967,269.643
			c-0.141-0.14-0.21-0.312-0.21-0.519c0-0.205,0.069-0.375,0.21-0.511c0.14-0.135,0.308-0.202,0.504-0.202
			c0.195,0,0.363,0.067,0.504,0.202c0.14,0.136,0.21,0.306,0.21,0.511c0,0.206-0.07,0.379-0.21,0.519
			c-0.141,0.14-0.309,0.21-0.504,0.21C371.274,269.853,371.106,269.783,370.967,269.643z M371.96,271.294v7.645h-0.979v-7.645
			H371.96z"/>
		
			<pattern  id="SVGID_00000018200327929091210380000012466041798726771621_" xlink:href="#New_Pattern_Swatch_1" patternTransform="matrix(1 0 0 1 38.8241 -83.2047)">
		</pattern>
		<path style="fill:url(#SVGID_00000018200327929091210380000012466041798726771621_);" d="M374.669,278.442
			c-0.555-0.405-0.865-0.959-0.931-1.659h1.008c0.047,0.43,0.25,0.777,0.609,1.043s0.842,0.399,1.449,0.399
			c0.531,0,0.949-0.126,1.253-0.378c0.303-0.252,0.455-0.564,0.455-0.938c0-0.262-0.084-0.477-0.252-0.645s-0.381-0.301-0.638-0.399
			c-0.257-0.098-0.604-0.202-1.043-0.315c-0.569-0.148-1.031-0.298-1.386-0.447s-0.655-0.371-0.903-0.665
			c-0.247-0.294-0.371-0.688-0.371-1.183c0-0.373,0.112-0.719,0.337-1.037c0.224-0.316,0.541-0.568,0.951-0.756
			c0.411-0.186,0.878-0.279,1.4-0.279c0.821,0,1.484,0.207,1.988,0.623c0.504,0.415,0.774,0.986,0.812,1.715h-0.979
			c-0.028-0.448-0.203-0.81-0.525-1.085s-0.763-0.413-1.323-0.413c-0.494,0-0.896,0.117-1.204,0.35
			c-0.308,0.234-0.462,0.523-0.462,0.868c0,0.299,0.092,0.544,0.273,0.735s0.408,0.341,0.679,0.447
			c0.271,0.107,0.635,0.227,1.092,0.357c0.551,0.149,0.989,0.295,1.316,0.434c0.326,0.141,0.606,0.346,0.84,0.617
			c0.233,0.27,0.354,0.629,0.364,1.078c0,0.41-0.112,0.776-0.336,1.098c-0.225,0.322-0.537,0.577-0.938,0.764
			s-0.863,0.279-1.386,0.279C375.941,279.05,375.225,278.848,374.669,278.442z"/>
		
			<pattern  id="SVGID_00000076601901595765845730000008238894126515809971_" xlink:href="#New_Pattern_Swatch_1" patternTransform="matrix(1 0 0 1 38.8241 -83.2047)">
		</pattern>
		<path style="fill:url(#SVGID_00000076601901595765845730000008238894126515809971_);" d="M386.527,271.519
			c0.462,0.242,0.826,0.613,1.092,1.113c0.266,0.499,0.398,1.107,0.398,1.826v4.48h-0.966v-4.368c0-0.831-0.207-1.465-0.623-1.903
			c-0.415-0.439-0.982-0.658-1.7-0.658c-0.738,0-1.326,0.232-1.765,0.699s-0.658,1.153-0.658,2.059v4.172h-0.979V268.58h0.979v4.018
			c0.243-0.457,0.6-0.812,1.071-1.064s1.001-0.378,1.589-0.378C385.545,271.155,386.065,271.277,386.527,271.519z"/>
		
			<pattern  id="SVGID_00000020357914816766646380000002229588695736955541_" xlink:href="#New_Pattern_Swatch_1" patternTransform="matrix(1 0 0 1 38.8241 -83.2047)">
		</pattern>
		<path style="fill:url(#SVGID_00000020357914816766646380000002229588695736955541_);" d="M399.708,269.741
			c0.774,0.392,1.367,0.957,1.778,1.694c0.41,0.737,0.616,1.615,0.616,2.632c0,1.009-0.206,1.878-0.616,2.61
			c-0.411,0.733-1.004,1.293-1.778,1.681s-1.703,0.581-2.786,0.581h-2.897v-9.786h2.897
			C398.005,269.153,398.934,269.349,399.708,269.741z M400.037,277.056c0.714-0.715,1.071-1.711,1.071-2.989
			c0-1.288-0.357-2.294-1.071-3.017c-0.714-0.724-1.752-1.086-3.115-1.086h-1.918v8.162h1.918
			C398.285,278.126,399.323,277.77,400.037,277.056z"/>
		
			<pattern  id="SVGID_00000096749826397249447840000002152177841764252078_" xlink:href="#New_Pattern_Swatch_1" patternTransform="matrix(1 0 0 1 38.8241 -83.2047)">
		</pattern>
		<path style="fill:url(#SVGID_00000096749826397249447840000002152177841764252078_);" d="M405.315,278.568
			c-0.574-0.322-1.027-0.779-1.358-1.372s-0.497-1.286-0.497-2.079s0.168-1.486,0.504-2.078c0.336-0.594,0.793-1.051,1.372-1.373
			s1.228-0.482,1.946-0.482s1.369,0.16,1.953,0.482c0.583,0.322,1.04,0.779,1.372,1.373c0.331,0.592,0.497,1.285,0.497,2.078
			c0,0.784-0.168,1.475-0.505,2.072c-0.336,0.598-0.798,1.057-1.386,1.379s-1.241,0.482-1.96,0.482S405.889,278.89,405.315,278.568z
			 M408.654,277.854c0.429-0.229,0.776-0.574,1.043-1.036c0.266-0.462,0.398-1.029,0.398-1.701s-0.131-1.238-0.392-1.701
			c-0.262-0.461-0.606-0.807-1.036-1.035s-0.896-0.344-1.399-0.344c-0.505,0-0.972,0.115-1.4,0.344
			c-0.43,0.229-0.772,0.574-1.029,1.035c-0.257,0.463-0.385,1.029-0.385,1.701s0.128,1.239,0.385,1.701s0.598,0.808,1.022,1.036
			c0.425,0.229,0.889,0.343,1.393,0.343S408.225,278.083,408.654,277.854z"/>
		
			<pattern  id="SVGID_00000166665936373340964970000017516882075399559314_" xlink:href="#New_Pattern_Swatch_1" patternTransform="matrix(1 0 0 1 38.8241 -83.2047)">
		</pattern>
		<path style="fill:url(#SVGID_00000166665936373340964970000017516882075399559314_);" d="M413.933,280.746
			c0,0.615-0.154,1.07-0.462,1.364c-0.309,0.294-0.771,0.44-1.387,0.44h-0.686v-0.84h0.532c0.363,0,0.625-0.076,0.784-0.23
			c0.158-0.154,0.237-0.413,0.237-0.777v-9.408h0.98V280.746z M412.952,269.643c-0.14-0.14-0.21-0.312-0.21-0.519
			c0-0.205,0.07-0.375,0.21-0.511c0.141-0.135,0.309-0.202,0.504-0.202c0.196,0,0.362,0.067,0.497,0.202
			c0.136,0.136,0.203,0.306,0.203,0.511c0,0.206-0.067,0.379-0.203,0.519c-0.135,0.14-0.301,0.21-0.497,0.21
			C413.261,269.853,413.093,269.783,412.952,269.643z"/>
		
			<pattern  id="SVGID_00000179622652555878626630000015869475367382697126_" xlink:href="#New_Pattern_Swatch_1" patternTransform="matrix(1 0 0 1 38.8241 -83.2047)">
		</pattern>
		<path style="fill:url(#SVGID_00000179622652555878626630000015869475367382697126_);" d="M416.159,269.643
			c-0.141-0.14-0.21-0.312-0.21-0.519c0-0.205,0.069-0.375,0.21-0.511c0.14-0.135,0.308-0.202,0.504-0.202
			c0.195,0,0.363,0.067,0.504,0.202c0.14,0.136,0.21,0.306,0.21,0.511c0,0.206-0.07,0.379-0.21,0.519
			c-0.141,0.14-0.309,0.21-0.504,0.21C416.467,269.853,416.299,269.783,416.159,269.643z M417.152,271.294v7.645h-0.979v-7.645
			H417.152z"/>
	</g>
	<g>
		
			<pattern  id="SVGID_00000089543690100506280550000018265385315183558050_" xlink:href="#New_Pattern_Swatch_1" patternTransform="matrix(1.4314 0 0 1.4314 2845.9802 3394.1953)">
		</pattern>
		
			<line style="fill:none;stroke:url(#SVGID_00000089543690100506280550000018265385315183558050_);stroke-width:1.25;stroke-miterlimit:10;" x1="378.267" y1="122.131" x2="378.267" y2="237.801"/>
		<g>
			<rect x="346.448" y="174.182" class="st25" width="63.638" height="13.085"/>
			
				<pattern  id="SVGID_00000168087476880698402190000007843576221264755886_" xlink:href="#New_Pattern_Swatch_1" patternTransform="matrix(1.4314 0 0 1.4314 2743.4819 3394.1953)">
			</pattern>
			<path style="fill:url(#SVGID_00000168087476880698402190000007843576221264755886_);" d="M408.586,175.682v10.085h-60.638
				v-10.085H408.586 M410.086,174.182h-63.638v13.085h63.638V174.182L410.086,174.182z"/>
		</g>
	</g>
	<g>
		<rect x="152.593" y="267.038" class="st0" width="104.921" height="20.032"/>
		
			<pattern  id="SVGID_00000119113159318292420100000007282018650641927074_" xlink:href="#New_Pattern_Swatch_1" patternTransform="matrix(1 0 0 1 -30.3895 -83.2047)">
		</pattern>
		<path style="fill:url(#SVGID_00000119113159318292420100000007282018650641927074_);" d="M176.137,274.724
			c0.383,0.457,0.574,0.99,0.574,1.596c0,0.496-0.124,0.941-0.371,1.338s-0.608,0.709-1.085,0.938
			c-0.476,0.229-1.045,0.344-1.708,0.344h-3.388v-9.787h3.29c0.989,0,1.743,0.229,2.261,0.687c0.519,0.458,0.777,1.05,0.777,1.778
			c0,0.606-0.164,1.099-0.49,1.477c-0.327,0.379-0.747,0.643-1.26,0.791C175.288,273.988,175.754,274.267,176.137,274.724z
			 M171.139,273.478h2.282c0.663,0,1.174-0.156,1.533-0.469s0.539-0.744,0.539-1.295c0-0.541-0.18-0.966-0.539-1.273
			c-0.359-0.309-0.885-0.463-1.575-0.463h-2.24V273.478z M175.136,277.609c0.396-0.336,0.596-0.799,0.596-1.387
			s-0.208-1.057-0.623-1.406c-0.416-0.351-0.974-0.525-1.673-0.525h-2.297v3.822h2.339
			C174.187,278.113,174.739,277.945,175.136,277.609z"/>
		
			<pattern  id="SVGID_00000027577971525010228610000014903930076106841517_" xlink:href="#New_Pattern_Swatch_1" patternTransform="matrix(1 0 0 1 -30.3895 -83.2047)">
		</pattern>
		<path style="fill:url(#SVGID_00000027577971525010228610000014903930076106841517_);" d="M185.139,271.294v7.645h-0.98v-1.345
			c-0.224,0.476-0.569,0.841-1.036,1.093s-0.989,0.377-1.567,0.377c-0.915,0-1.661-0.281-2.24-0.847
			c-0.579-0.564-0.868-1.384-0.868-2.457v-4.466h0.966v4.354c0,0.832,0.208,1.466,0.623,1.904c0.415,0.439,0.982,0.658,1.701,0.658
			c0.737,0,1.325-0.233,1.764-0.7c0.439-0.466,0.658-1.152,0.658-2.058v-4.158H185.139z"/>
		
			<pattern  id="SVGID_00000155858995567228245300000015699878354543896217_" xlink:href="#New_Pattern_Swatch_1" patternTransform="matrix(1 0 0 1 -30.3895 -83.2047)">
		</pattern>
		<path style="fill:url(#SVGID_00000155858995567228245300000015699878354543896217_);" d="M188.358,268.579v10.36h-0.979v-10.36
			H188.358z"/>
		
			<pattern  id="SVGID_00000162327876004754188730000017016733155091641235_" xlink:href="#New_Pattern_Swatch_1" patternTransform="matrix(1 0 0 1 -30.3895 -83.2047)">
		</pattern>
		<path style="fill:url(#SVGID_00000162327876004754188730000017016733155091641235_);" d="M191.564,268.579v10.36h-0.979v-10.36
			H191.564z"/>
		
			<pattern  id="SVGID_00000044148046983051874790000009132169427230057093_" xlink:href="#New_Pattern_Swatch_1" patternTransform="matrix(1 0 0 1 -30.3895 -83.2047)">
		</pattern>
		<path style="fill:url(#SVGID_00000044148046983051874790000009132169427230057093_);" d="M193.777,269.642
			c-0.141-0.14-0.21-0.312-0.21-0.518s0.069-0.375,0.21-0.512c0.14-0.135,0.308-0.202,0.504-0.202c0.195,0,0.363,0.067,0.504,0.202
			c0.14,0.137,0.21,0.307,0.21,0.512s-0.07,0.378-0.21,0.518c-0.141,0.141-0.309,0.211-0.504,0.211
			C194.085,269.853,193.917,269.783,193.777,269.642z M194.771,271.294v7.645h-0.979v-7.645H194.771z"/>
		
			<pattern  id="SVGID_00000014603961708520857750000017463509988554173068_" xlink:href="#New_Pattern_Swatch_1" patternTransform="matrix(1 0 0 1 -30.3895 -83.2047)">
		</pattern>
		<path style="fill:url(#SVGID_00000014603961708520857750000017463509988554173068_);" d="M197.479,278.441
			c-0.555-0.405-0.865-0.959-0.931-1.658h1.008c0.047,0.43,0.25,0.777,0.609,1.043s0.842,0.398,1.449,0.398
			c0.531,0,0.949-0.125,1.253-0.377c0.303-0.253,0.455-0.565,0.455-0.938c0-0.261-0.084-0.476-0.252-0.644s-0.381-0.302-0.638-0.4
			c-0.257-0.098-0.604-0.202-1.043-0.314c-0.569-0.148-1.031-0.299-1.386-0.447c-0.354-0.15-0.655-0.371-0.903-0.666
			c-0.247-0.293-0.371-0.688-0.371-1.183c0-0.373,0.112-0.719,0.337-1.036c0.224-0.316,0.541-0.568,0.951-0.756
			c0.411-0.187,0.878-0.279,1.4-0.279c0.821,0,1.484,0.207,1.988,0.623c0.504,0.414,0.774,0.986,0.812,1.715h-0.979
			c-0.028-0.449-0.203-0.811-0.525-1.086s-0.763-0.412-1.323-0.412c-0.494,0-0.896,0.116-1.204,0.35
			c-0.308,0.233-0.462,0.523-0.462,0.867c0,0.299,0.092,0.545,0.273,0.736s0.408,0.34,0.679,0.447s0.635,0.227,1.092,0.357
			c0.551,0.148,0.989,0.294,1.316,0.434c0.326,0.141,0.606,0.346,0.84,0.616s0.354,0.63,0.364,1.078
			c0,0.411-0.112,0.776-0.336,1.099c-0.225,0.322-0.537,0.576-0.938,0.764c-0.401,0.186-0.863,0.279-1.386,0.279
			C198.752,279.05,198.035,278.847,197.479,278.441z"/>
		
			<pattern  id="SVGID_00000143600144636160192590000011029751802293793727_" xlink:href="#New_Pattern_Swatch_1" patternTransform="matrix(1 0 0 1 -30.3895 -83.2047)">
		</pattern>
		<path style="fill:url(#SVGID_00000143600144636160192590000011029751802293793727_);" d="M209.338,271.519
			c0.462,0.242,0.826,0.613,1.092,1.112s0.398,1.108,0.398,1.827v4.48h-0.966v-4.369c0-0.83-0.207-1.465-0.623-1.903
			c-0.415-0.438-0.982-0.658-1.7-0.658c-0.738,0-1.326,0.233-1.765,0.7s-0.658,1.152-0.658,2.059v4.172h-0.979v-10.36h0.979v4.019
			c0.243-0.458,0.6-0.812,1.071-1.064s1.001-0.379,1.589-0.379C208.355,271.154,208.876,271.276,209.338,271.519z"/>
		
			<pattern  id="SVGID_00000083782308307371492600000000680553710969514385_" xlink:href="#New_Pattern_Swatch_1" patternTransform="matrix(1 0 0 1 -30.3895 -83.2047)">
		</pattern>
		<path style="fill:url(#SVGID_00000083782308307371492600000000680553710969514385_);" d="M222.519,269.74
			c0.774,0.393,1.367,0.957,1.778,1.695c0.41,0.736,0.616,1.614,0.616,2.631c0,1.009-0.206,1.879-0.616,2.611
			c-0.411,0.732-1.004,1.293-1.778,1.68c-0.774,0.389-1.703,0.582-2.786,0.582h-2.897v-9.787h2.897
			C220.815,269.152,221.744,269.349,222.519,269.74z M222.848,277.056c0.714-0.715,1.071-1.711,1.071-2.99
			c0-1.287-0.357-2.293-1.071-3.017s-1.752-1.085-3.115-1.085h-1.918v8.162h1.918C221.096,278.126,222.134,277.769,222.848,277.056z
			"/>
		
			<pattern  id="SVGID_00000038375699771504517710000007492267189626022836_" xlink:href="#New_Pattern_Swatch_1" patternTransform="matrix(1 0 0 1 -30.3895 -83.2047)">
		</pattern>
		<path style="fill:url(#SVGID_00000038375699771504517710000007492267189626022836_);" d="M228.126,278.568
			c-0.574-0.322-1.027-0.779-1.358-1.373c-0.331-0.592-0.497-1.285-0.497-2.078s0.168-1.486,0.504-2.079s0.793-1.05,1.372-1.372
			s1.228-0.482,1.946-0.482s1.369,0.16,1.953,0.482c0.583,0.322,1.04,0.779,1.372,1.372c0.331,0.593,0.497,1.286,0.497,2.079
			c0,0.783-0.168,1.475-0.505,2.072c-0.336,0.597-0.798,1.057-1.386,1.379s-1.241,0.482-1.96,0.482S228.699,278.89,228.126,278.568z
			 M231.465,277.853c0.429-0.229,0.776-0.574,1.043-1.035c0.266-0.463,0.398-1.029,0.398-1.701s-0.131-1.239-0.392-1.701
			c-0.262-0.462-0.606-0.807-1.036-1.036c-0.43-0.229-0.896-0.343-1.399-0.343c-0.505,0-0.972,0.114-1.4,0.343
			c-0.43,0.229-0.772,0.574-1.029,1.036s-0.385,1.029-0.385,1.701s0.128,1.238,0.385,1.701c0.257,0.461,0.598,0.807,1.022,1.035
			c0.425,0.229,0.889,0.344,1.393,0.344S231.035,278.083,231.465,277.853z"/>
		
			<pattern  id="SVGID_00000060024313948206590610000009168417435930945417_" xlink:href="#New_Pattern_Swatch_1" patternTransform="matrix(1 0 0 1 -30.3895 -83.2047)">
		</pattern>
		<path style="fill:url(#SVGID_00000060024313948206590610000009168417435930945417_);" d="M236.743,280.745
			c0,0.616-0.154,1.071-0.462,1.364c-0.309,0.295-0.771,0.441-1.387,0.441h-0.686v-0.84h0.532c0.363,0,0.625-0.077,0.784-0.23
			c0.158-0.154,0.237-0.414,0.237-0.777v-9.408h0.98V280.745z M235.763,269.642c-0.14-0.14-0.21-0.312-0.21-0.518
			s0.07-0.375,0.21-0.512c0.141-0.135,0.309-0.202,0.504-0.202c0.196,0,0.362,0.067,0.497,0.202
			c0.136,0.137,0.203,0.307,0.203,0.512s-0.067,0.378-0.203,0.518c-0.135,0.141-0.301,0.211-0.497,0.211
			C236.071,269.853,235.903,269.783,235.763,269.642z"/>
		
			<pattern  id="SVGID_00000040563944141509795770000016505386762873188536_" xlink:href="#New_Pattern_Swatch_1" patternTransform="matrix(1 0 0 1 -30.3895 -83.2047)">
		</pattern>
		<path style="fill:url(#SVGID_00000040563944141509795770000016505386762873188536_);" d="M238.97,269.642
			c-0.141-0.14-0.21-0.312-0.21-0.518s0.069-0.375,0.21-0.512c0.14-0.135,0.308-0.202,0.504-0.202c0.195,0,0.363,0.067,0.504,0.202
			c0.14,0.137,0.21,0.307,0.21,0.512s-0.07,0.378-0.21,0.518c-0.141,0.141-0.309,0.211-0.504,0.211
			C239.277,269.853,239.109,269.783,238.97,269.642z M239.963,271.294v7.645h-0.979v-7.645H239.963z"/>
	</g>
	<g>
		<rect x="239.2" y="491.916" class="st0" width="104.921" height="39.24"/>
		
			<pattern  id="SVGID_00000155135797654159012170000017007865381853083301_" xlink:href="#New_Pattern_Swatch_1" patternTransform="matrix(1 0 0 1 56.2173 -75.053)">
		</pattern>
		<path style="fill:url(#SVGID_00000155135797654159012170000017007865381853083301_);" d="M260.225,496.885
			c-0.28-0.644-0.707-1.149-1.281-1.519c-0.574-0.368-1.248-0.553-2.023-0.553c-0.728,0-1.381,0.168-1.96,0.504
			c-0.578,0.336-1.036,0.814-1.372,1.435c-0.336,0.621-0.504,1.342-0.504,2.163s0.168,1.545,0.504,2.17
			c0.336,0.626,0.794,1.106,1.372,1.442c0.579,0.336,1.232,0.504,1.96,0.504c0.682,0,1.295-0.147,1.842-0.441
			c0.546-0.294,0.984-0.714,1.315-1.26s0.521-1.183,0.567-1.911h-4.116v-0.798h5.152v0.714c-0.047,0.859-0.28,1.636-0.7,2.331
			s-0.982,1.244-1.688,1.646c-0.704,0.401-1.495,0.602-2.373,0.602c-0.905,0-1.727-0.212-2.464-0.637s-1.318-1.018-1.743-1.778
			s-0.637-1.621-0.637-2.583c0-0.961,0.212-1.822,0.637-2.583s1.006-1.354,1.743-1.778c0.737-0.424,1.559-0.637,2.464-0.637
			c1.046,0,1.96,0.262,2.744,0.784s1.354,1.251,1.708,2.184H260.225z"/>
		
			<pattern  id="SVGID_00000057863883997225363700000012051304743477591993_" xlink:href="#New_Pattern_Swatch_1" patternTransform="matrix(1 0 0 1 56.2173 -75.053)">
		</pattern>
		<path style="fill:url(#SVGID_00000057863883997225363700000012051304743477591993_);" d="M265.439,496.423
			c0.443-0.261,0.987-0.392,1.631-0.392v1.021h-0.266c-0.71,0-1.279,0.191-1.708,0.574c-0.43,0.383-0.645,1.022-0.645,1.918v4.271
			h-0.979v-7.645h0.979v1.358C264.667,497.053,264.996,496.685,265.439,496.423z"/>
		
			<pattern  id="SVGID_00000131347773054416940210000011693274474639035813_" xlink:href="#New_Pattern_Swatch_1" patternTransform="matrix(1 0 0 1 56.2173 -75.053)">
		</pattern>
		<path style="fill:url(#SVGID_00000131347773054416940210000011693274474639035813_);" d="M268.562,497.915
			c0.312-0.593,0.747-1.05,1.303-1.372c0.555-0.322,1.183-0.482,1.883-0.482c0.728,0,1.355,0.168,1.883,0.504
			s0.907,0.765,1.141,1.288v-1.681h0.98v7.645h-0.98v-1.694c-0.242,0.522-0.627,0.954-1.154,1.295s-1.155,0.511-1.884,0.511
			c-0.69,0-1.313-0.163-1.868-0.489c-0.556-0.327-0.99-0.789-1.303-1.387c-0.312-0.597-0.469-1.287-0.469-2.071
			S268.249,498.507,268.562,497.915z M274.393,498.37c-0.252-0.467-0.595-0.826-1.028-1.078c-0.435-0.252-0.913-0.378-1.436-0.378
			c-0.541,0-1.026,0.121-1.456,0.364c-0.429,0.242-0.768,0.595-1.015,1.057s-0.371,1.011-0.371,1.646
			c0,0.625,0.124,1.174,0.371,1.645c0.247,0.472,0.586,0.831,1.015,1.078c0.43,0.247,0.915,0.371,1.456,0.371
			c0.522,0,1.001-0.126,1.436-0.378c0.434-0.252,0.776-0.611,1.028-1.078s0.378-1.008,0.378-1.624S274.645,498.836,274.393,498.37z"
			/>
		
			<pattern  id="SVGID_00000142136039792472832970000010847830122381075103_" xlink:href="#New_Pattern_Swatch_1" patternTransform="matrix(1 0 0 1 56.2173 -75.053)">
		</pattern>
		<path style="fill:url(#SVGID_00000142136039792472832970000010847830122381075103_);" d="M280.707,502.864l2.576-6.692h1.036
			l-3.066,7.645h-1.105l-3.066-7.645h1.05L280.707,502.864z"/>
		
			<pattern  id="SVGID_00000124163300199866783680000004492031113915805370_" xlink:href="#New_Pattern_Swatch_1" patternTransform="matrix(1 0 0 1 56.2173 -75.053)">
		</pattern>
		<path style="fill:url(#SVGID_00000124163300199866783680000004492031113915805370_);" d="M292.537,500.372h-6.342
			c0.028,0.579,0.168,1.073,0.42,1.484c0.252,0.41,0.583,0.721,0.994,0.931c0.41,0.21,0.858,0.315,1.344,0.315
			c0.635,0,1.169-0.154,1.604-0.462c0.434-0.309,0.721-0.724,0.86-1.246h1.036c-0.187,0.746-0.586,1.355-1.197,1.826
			c-0.611,0.472-1.379,0.707-2.303,0.707c-0.719,0-1.362-0.16-1.932-0.482s-1.016-0.779-1.337-1.372
			c-0.322-0.593-0.483-1.286-0.483-2.079s0.159-1.488,0.477-2.086c0.316-0.598,0.76-1.055,1.329-1.372s1.219-0.476,1.946-0.476
			c0.729,0,1.365,0.158,1.911,0.476s0.966,0.744,1.26,1.281c0.294,0.536,0.441,1.132,0.441,1.785
			C292.565,499.938,292.556,500.195,292.537,500.372z M291.229,498.118c-0.238-0.401-0.562-0.705-0.974-0.91
			c-0.41-0.205-0.858-0.308-1.344-0.308c-0.728,0-1.349,0.233-1.862,0.7c-0.513,0.467-0.798,1.124-0.854,1.974h5.376
			C291.58,499.004,291.466,498.519,291.229,498.118z"/>
		
			<pattern  id="SVGID_00000002368885252471843000000007879111332854296746_" xlink:href="#New_Pattern_Swatch_1" patternTransform="matrix(1 0 0 1 56.2173 -75.053)">
		</pattern>
		<path style="fill:url(#SVGID_00000002368885252471843000000007879111332854296746_);" d="M294.84,503.319
			c-0.555-0.406-0.865-0.959-0.931-1.659h1.008c0.047,0.43,0.25,0.777,0.609,1.043s0.842,0.399,1.449,0.399
			c0.531,0,0.949-0.126,1.253-0.378c0.303-0.253,0.455-0.565,0.455-0.938c0-0.261-0.084-0.476-0.252-0.644s-0.381-0.302-0.638-0.399
			s-0.604-0.203-1.043-0.315c-0.569-0.148-1.031-0.298-1.386-0.447s-0.655-0.371-0.903-0.665c-0.247-0.294-0.371-0.688-0.371-1.184
			c0-0.373,0.112-0.719,0.337-1.036c0.224-0.316,0.541-0.568,0.951-0.756c0.411-0.187,0.878-0.279,1.4-0.279
			c0.821,0,1.484,0.207,1.988,0.623c0.504,0.415,0.774,0.986,0.812,1.715H298.6c-0.028-0.448-0.203-0.81-0.525-1.085
			s-0.763-0.413-1.323-0.413c-0.494,0-0.896,0.116-1.204,0.35c-0.308,0.233-0.462,0.523-0.462,0.868
			c0,0.299,0.092,0.544,0.273,0.735s0.408,0.341,0.679,0.447c0.271,0.107,0.635,0.227,1.092,0.357
			c0.551,0.149,0.989,0.294,1.316,0.434c0.326,0.141,0.606,0.346,0.84,0.616s0.354,0.63,0.364,1.078
			c0,0.411-0.112,0.777-0.336,1.099c-0.225,0.322-0.537,0.577-0.938,0.764s-0.863,0.279-1.386,0.279
			C296.112,503.927,295.396,503.725,294.84,503.319z"/>
		
			<pattern  id="SVGID_00000092440775041643810300000006401718764266920097_" xlink:href="#New_Pattern_Swatch_1" patternTransform="matrix(1 0 0 1 56.2173 -75.053)">
		</pattern>
		<path style="fill:url(#SVGID_00000092440775041643810300000006401718764266920097_);" d="M302.771,496.998v4.746
			c0,0.467,0.089,0.789,0.267,0.966c0.177,0.178,0.49,0.267,0.938,0.267h0.896v0.84h-1.05c-0.691,0-1.204-0.161-1.54-0.483
			s-0.504-0.852-0.504-1.589v-4.746h-1.064v-0.826h1.064v-1.918h0.993v1.918h2.101v0.826H302.771z"/>
		
			<pattern  id="SVGID_00000073703991261283746990000017199925608477943182_" xlink:href="#New_Pattern_Swatch_1" patternTransform="matrix(1 0 0 1 56.2173 -75.053)">
		</pattern>
		<path style="fill:url(#SVGID_00000073703991261283746990000017199925608477943182_);" d="M307.888,503.445
			c-0.574-0.322-1.027-0.779-1.358-1.372s-0.497-1.286-0.497-2.079s0.168-1.486,0.504-2.079s0.793-1.05,1.372-1.372
			s1.228-0.482,1.946-0.482s1.369,0.16,1.953,0.482c0.583,0.322,1.04,0.779,1.372,1.372c0.331,0.593,0.497,1.286,0.497,2.079
			c0,0.784-0.168,1.475-0.505,2.072c-0.336,0.597-0.798,1.057-1.386,1.379s-1.241,0.482-1.96,0.482S308.461,503.767,307.888,503.445
			z M311.227,502.731c0.429-0.229,0.776-0.574,1.043-1.036c0.266-0.462,0.398-1.029,0.398-1.701s-0.131-1.239-0.392-1.701
			c-0.262-0.462-0.606-0.807-1.036-1.036c-0.43-0.229-0.896-0.343-1.399-0.343c-0.505,0-0.972,0.114-1.4,0.343
			c-0.43,0.229-0.772,0.574-1.029,1.036s-0.385,1.029-0.385,1.701s0.128,1.239,0.385,1.701s0.598,0.808,1.022,1.036
			s0.889,0.343,1.393,0.343S310.797,502.959,311.227,502.731z"/>
		
			<pattern  id="SVGID_00000035524492047367546350000006489129406883365767_" xlink:href="#New_Pattern_Swatch_1" patternTransform="matrix(1 0 0 1 56.2173 -75.053)">
		</pattern>
		<path style="fill:url(#SVGID_00000035524492047367546350000006489129406883365767_);" d="M321.293,496.878
			c0.578,0.565,0.867,1.384,0.867,2.457v4.48h-0.966v-4.368c0-0.831-0.207-1.465-0.623-1.904c-0.415-0.438-0.982-0.658-1.7-0.658
			c-0.738,0-1.326,0.233-1.765,0.7s-0.658,1.153-0.658,2.059v4.172h-0.979v-7.645h0.979v1.303c0.243-0.467,0.593-0.824,1.051-1.071
			c0.457-0.247,0.975-0.371,1.554-0.371C319.967,496.032,320.714,496.314,321.293,496.878z"/>
		
			<pattern  id="SVGID_00000021113965399879944860000014886356143468580285_" xlink:href="#New_Pattern_Swatch_1" patternTransform="matrix(1 0 0 1 56.2173 -75.053)">
		</pattern>
		<path style="fill:url(#SVGID_00000021113965399879944860000014886356143468580285_);" d="M331.219,500.372h-6.342
			c0.028,0.579,0.168,1.073,0.42,1.484c0.252,0.41,0.583,0.721,0.994,0.931c0.41,0.21,0.858,0.315,1.344,0.315
			c0.635,0,1.169-0.154,1.604-0.462c0.434-0.309,0.721-0.724,0.86-1.246h1.036c-0.187,0.746-0.586,1.355-1.197,1.826
			c-0.611,0.472-1.379,0.707-2.303,0.707c-0.719,0-1.362-0.16-1.932-0.482s-1.016-0.779-1.337-1.372
			c-0.322-0.593-0.483-1.286-0.483-2.079s0.159-1.488,0.477-2.086c0.316-0.598,0.76-1.055,1.329-1.372s1.219-0.476,1.946-0.476
			c0.729,0,1.365,0.158,1.911,0.476s0.966,0.744,1.26,1.281c0.294,0.536,0.441,1.132,0.441,1.785
			C331.247,499.938,331.237,500.195,331.219,500.372z M329.91,498.118c-0.238-0.401-0.562-0.705-0.974-0.91
			c-0.41-0.205-0.858-0.308-1.344-0.308c-0.728,0-1.349,0.233-1.862,0.7c-0.513,0.467-0.798,1.124-0.854,1.974h5.376
			C330.262,499.004,330.147,498.519,329.91,498.118z"/>
		
			<pattern  id="SVGID_00000121281164736183946940000011389469347602672050_" xlink:href="#New_Pattern_Swatch_1" patternTransform="matrix(1 0 0 1 56.2173 -75.053)">
		</pattern>
		<path style="fill:url(#SVGID_00000121281164736183946940000011389469347602672050_);" d="M285.787,512.618
			c0.774,0.392,1.367,0.957,1.778,1.694c0.41,0.737,0.616,1.614,0.616,2.632c0,1.008-0.206,1.878-0.616,2.61
			c-0.411,0.733-1.004,1.293-1.778,1.681s-1.703,0.581-2.786,0.581h-2.897v-9.786h2.897
			C284.084,512.03,285.013,512.226,285.787,512.618z M286.116,519.933c0.714-0.715,1.071-1.711,1.071-2.989
			c0-1.288-0.357-2.294-1.071-3.018c-0.714-0.723-1.752-1.085-3.115-1.085h-1.918v8.162h1.918
			C284.364,521.003,285.402,520.647,286.116,519.933z"/>
		
			<pattern  id="SVGID_00000076586559088703732660000000666709410176108453_" xlink:href="#New_Pattern_Swatch_1" patternTransform="matrix(1 0 0 1 56.2173 -75.053)">
		</pattern>
		<path style="fill:url(#SVGID_00000076586559088703732660000000666709410176108453_);" d="M291.395,521.445
			c-0.574-0.322-1.027-0.779-1.358-1.372s-0.497-1.286-0.497-2.079s0.168-1.486,0.504-2.079s0.793-1.05,1.372-1.372
			s1.228-0.482,1.946-0.482s1.369,0.16,1.953,0.482c0.583,0.322,1.04,0.779,1.372,1.372c0.331,0.593,0.497,1.286,0.497,2.079
			c0,0.784-0.168,1.475-0.505,2.072c-0.336,0.597-0.798,1.057-1.386,1.379s-1.241,0.482-1.96,0.482S291.968,521.767,291.395,521.445
			z M294.733,520.731c0.429-0.229,0.776-0.574,1.043-1.036c0.266-0.462,0.398-1.029,0.398-1.701s-0.131-1.239-0.392-1.701
			c-0.262-0.462-0.606-0.807-1.036-1.036c-0.43-0.229-0.896-0.343-1.399-0.343c-0.505,0-0.972,0.114-1.4,0.343
			c-0.43,0.229-0.772,0.574-1.029,1.036s-0.385,1.029-0.385,1.701s0.128,1.239,0.385,1.701s0.598,0.808,1.022,1.036
			s0.889,0.343,1.393,0.343S294.304,520.959,294.733,520.731z"/>
		
			<pattern  id="SVGID_00000074426318581269730740000014905685719587214244_" xlink:href="#New_Pattern_Swatch_1" patternTransform="matrix(1 0 0 1 56.2173 -75.053)">
		</pattern>
		<path style="fill:url(#SVGID_00000074426318581269730740000014905685719587214244_);" d="M300.012,523.622
			c0,0.616-0.154,1.071-0.462,1.365c-0.309,0.294-0.771,0.44-1.387,0.44h-0.686v-0.84h0.532c0.363,0,0.625-0.077,0.784-0.23
			c0.158-0.154,0.237-0.413,0.237-0.777v-9.408h0.98V523.622z M299.031,512.52c-0.14-0.141-0.21-0.312-0.21-0.519
			c0-0.205,0.07-0.375,0.21-0.511c0.141-0.135,0.309-0.203,0.504-0.203c0.196,0,0.362,0.068,0.497,0.203
			c0.136,0.136,0.203,0.306,0.203,0.511c0,0.206-0.067,0.378-0.203,0.519c-0.135,0.14-0.301,0.21-0.497,0.21
			C299.34,512.73,299.172,512.66,299.031,512.52z"/>
		
			<pattern  id="SVGID_00000130609457759157186450000006977618725512753805_" xlink:href="#New_Pattern_Swatch_1" patternTransform="matrix(1 0 0 1 56.2173 -75.053)">
		</pattern>
		<path style="fill:url(#SVGID_00000130609457759157186450000006977618725512753805_);" d="M302.238,512.52
			c-0.141-0.141-0.21-0.312-0.21-0.519c0-0.205,0.069-0.375,0.21-0.511c0.14-0.135,0.308-0.203,0.504-0.203
			c0.195,0,0.363,0.068,0.504,0.203c0.14,0.136,0.21,0.306,0.21,0.511c0,0.206-0.07,0.378-0.21,0.519
			c-0.141,0.14-0.309,0.21-0.504,0.21C302.546,512.73,302.378,512.66,302.238,512.52z M303.231,514.171v7.645h-0.979v-7.645H303.231
			z"/>
	</g>
	<g>
		<rect x="103.523" y="491.916" class="st0" width="104.921" height="39.24"/>
		
			<pattern  id="SVGID_00000143602362672361792080000013773005805065346954_" xlink:href="#New_Pattern_Swatch_1" patternTransform="matrix(1 0 0 1 24.5406 -75.053)">
		</pattern>
		<path style="fill:url(#SVGID_00000143602362672361792080000013773005805065346954_);" d="M113.368,503.018h3.515v0.798h-4.494
			v-9.786h0.979V503.018z"/>
		
			<pattern  id="SVGID_00000008140082283076484530000005976920182732349067_" xlink:href="#New_Pattern_Swatch_1" patternTransform="matrix(1 0 0 1 24.5406 -75.053)">
		</pattern>
		<path style="fill:url(#SVGID_00000008140082283076484530000005976920182732349067_);" d="M119.689,503.445
			c-0.574-0.322-1.027-0.779-1.358-1.372s-0.497-1.286-0.497-2.079s0.168-1.486,0.504-2.079s0.793-1.05,1.372-1.372
			s1.228-0.482,1.946-0.482s1.369,0.16,1.953,0.482c0.583,0.322,1.04,0.779,1.372,1.372c0.331,0.593,0.497,1.286,0.497,2.079
			c0,0.784-0.168,1.475-0.505,2.072c-0.336,0.597-0.798,1.057-1.386,1.379s-1.241,0.482-1.96,0.482S120.263,503.767,119.689,503.445
			z M123.028,502.731c0.429-0.229,0.776-0.574,1.043-1.036c0.266-0.462,0.398-1.029,0.398-1.701s-0.131-1.239-0.392-1.701
			c-0.262-0.462-0.606-0.807-1.036-1.036c-0.43-0.229-0.896-0.343-1.399-0.343c-0.505,0-0.972,0.114-1.4,0.343
			c-0.43,0.229-0.772,0.574-1.029,1.036s-0.385,1.029-0.385,1.701s0.128,1.239,0.385,1.701s0.598,0.808,1.022,1.036
			s0.889,0.343,1.393,0.343S122.599,502.959,123.028,502.731z"/>
		
			<pattern  id="SVGID_00000111158962891192429130000015553753678508779669_" xlink:href="#New_Pattern_Swatch_1" patternTransform="matrix(1 0 0 1 24.5406 -75.053)">
		</pattern>
		<path style="fill:url(#SVGID_00000111158962891192429130000015553753678508779669_);" d="M133.095,496.878
			c0.578,0.565,0.867,1.384,0.867,2.457v4.48h-0.966v-4.368c0-0.831-0.207-1.465-0.623-1.904c-0.415-0.438-0.982-0.658-1.7-0.658
			c-0.738,0-1.326,0.233-1.765,0.7s-0.658,1.153-0.658,2.059v4.172h-0.979v-7.645h0.979v1.303c0.243-0.467,0.593-0.824,1.051-1.071
			c0.457-0.247,0.975-0.371,1.554-0.371C131.769,496.032,132.516,496.314,133.095,496.878z"/>
		
			<pattern  id="SVGID_00000165916399766890047700000015333741349165977481_" xlink:href="#New_Pattern_Swatch_1" patternTransform="matrix(1 0 0 1 24.5406 -75.053)">
		</pattern>
		<path style="fill:url(#SVGID_00000165916399766890047700000015333741349165977481_);" d="M141.215,496.564
			c0.532,0.336,0.914,0.761,1.147,1.273v-1.666h0.98v7.84c0,0.7-0.152,1.321-0.455,1.862c-0.304,0.541-0.726,0.959-1.267,1.253
			c-0.542,0.294-1.158,0.441-1.849,0.441c-0.979,0-1.794-0.233-2.442-0.7c-0.649-0.467-1.053-1.102-1.211-1.904h0.966
			c0.168,0.532,0.487,0.957,0.959,1.274c0.471,0.317,1.047,0.476,1.729,0.476c0.495,0,0.938-0.104,1.33-0.314
			c0.393-0.21,0.7-0.521,0.924-0.932c0.225-0.41,0.336-0.896,0.336-1.456v-1.89c-0.242,0.522-0.627,0.954-1.154,1.295
			s-1.15,0.511-1.869,0.511c-0.7,0-1.328-0.163-1.883-0.489c-0.556-0.327-0.99-0.789-1.303-1.387
			c-0.312-0.597-0.469-1.287-0.469-2.071s0.156-1.473,0.469-2.065s0.747-1.05,1.303-1.372c0.555-0.322,1.183-0.482,1.883-0.482
			C140.058,496.06,140.683,496.228,141.215,496.564z M141.984,498.37c-0.252-0.467-0.595-0.826-1.028-1.078
			c-0.435-0.252-0.913-0.378-1.436-0.378c-0.541,0-1.026,0.121-1.456,0.364c-0.429,0.242-0.768,0.595-1.015,1.057
			s-0.371,1.011-0.371,1.646c0,0.625,0.124,1.174,0.371,1.645c0.247,0.472,0.586,0.831,1.015,1.078
			c0.43,0.247,0.915,0.371,1.456,0.371c0.522,0,1.001-0.126,1.436-0.378c0.434-0.252,0.776-0.611,1.028-1.078
			s0.378-1.008,0.378-1.624S142.236,498.836,141.984,498.37z"/>
		
			<pattern  id="SVGID_00000053540806066109793170000013623433692948945579_" xlink:href="#New_Pattern_Swatch_1" patternTransform="matrix(1 0 0 1 24.5406 -75.053)">
		</pattern>
		<path style="fill:url(#SVGID_00000053540806066109793170000013623433692948945579_);" d="M150.329,498.215v0.826h-5.446v-0.826
			H150.329z"/>
		
			<pattern  id="SVGID_00000021835661516640095640000002926582033757325220_" xlink:href="#New_Pattern_Swatch_1" patternTransform="matrix(1 0 0 1 24.5406 -75.053)">
		</pattern>
		<path style="fill:url(#SVGID_00000021835661516640095640000002926582033757325220_);" d="M153.828,493.456v10.36h-0.979v-10.36
			H153.828z"/>
		
			<pattern  id="SVGID_00000086663463201210526130000010554560580782495624_" xlink:href="#New_Pattern_Swatch_1" patternTransform="matrix(1 0 0 1 24.5406 -75.053)">
		</pattern>
		<path style="fill:url(#SVGID_00000086663463201210526130000010554560580782495624_);" d="M162.942,500.372h-6.342
			c0.028,0.579,0.168,1.073,0.42,1.484c0.252,0.41,0.583,0.721,0.994,0.931c0.41,0.21,0.858,0.315,1.344,0.315
			c0.635,0,1.169-0.154,1.604-0.462c0.434-0.309,0.721-0.724,0.86-1.246h1.036c-0.187,0.746-0.586,1.355-1.197,1.826
			c-0.611,0.472-1.379,0.707-2.303,0.707c-0.719,0-1.362-0.16-1.932-0.482s-1.016-0.779-1.337-1.372
			c-0.322-0.593-0.483-1.286-0.483-2.079s0.159-1.488,0.477-2.086c0.316-0.598,0.76-1.055,1.329-1.372s1.219-0.476,1.946-0.476
			c0.729,0,1.365,0.158,1.911,0.476s0.966,0.744,1.26,1.281c0.294,0.536,0.441,1.132,0.441,1.785
			C162.971,499.938,162.961,500.195,162.942,500.372z M161.634,498.118c-0.238-0.401-0.562-0.705-0.974-0.91
			c-0.41-0.205-0.858-0.308-1.344-0.308c-0.728,0-1.349,0.233-1.862,0.7c-0.513,0.467-0.798,1.124-0.854,1.974h5.376
			C161.985,499.004,161.871,498.519,161.634,498.118z"/>
		
			<pattern  id="SVGID_00000096019014623583573000000006707040458541676698_" xlink:href="#New_Pattern_Swatch_1" patternTransform="matrix(1 0 0 1 24.5406 -75.053)">
		</pattern>
		<path style="fill:url(#SVGID_00000096019014623583573000000006707040458541676698_);" d="M169.845,496.564
			c0.532,0.336,0.914,0.761,1.147,1.273v-1.666h0.98v7.84c0,0.7-0.152,1.321-0.455,1.862c-0.304,0.541-0.726,0.959-1.267,1.253
			c-0.542,0.294-1.158,0.441-1.849,0.441c-0.979,0-1.794-0.233-2.442-0.7c-0.649-0.467-1.053-1.102-1.211-1.904h0.966
			c0.168,0.532,0.487,0.957,0.959,1.274c0.471,0.317,1.047,0.476,1.729,0.476c0.495,0,0.938-0.104,1.33-0.314
			c0.393-0.21,0.7-0.521,0.924-0.932c0.225-0.41,0.336-0.896,0.336-1.456v-1.89c-0.242,0.522-0.627,0.954-1.154,1.295
			s-1.15,0.511-1.869,0.511c-0.7,0-1.328-0.163-1.883-0.489c-0.556-0.327-0.99-0.789-1.303-1.387
			c-0.312-0.597-0.469-1.287-0.469-2.071s0.156-1.473,0.469-2.065s0.747-1.05,1.303-1.372c0.555-0.322,1.183-0.482,1.883-0.482
			C168.688,496.06,169.312,496.228,169.845,496.564z M170.614,498.37c-0.252-0.467-0.595-0.826-1.028-1.078
			c-0.435-0.252-0.913-0.378-1.436-0.378c-0.541,0-1.026,0.121-1.456,0.364c-0.429,0.242-0.768,0.595-1.015,1.057
			s-0.371,1.011-0.371,1.646c0,0.625,0.124,1.174,0.371,1.645c0.247,0.472,0.586,0.831,1.015,1.078
			c0.43,0.247,0.915,0.371,1.456,0.371c0.522,0,1.001-0.126,1.436-0.378c0.434-0.252,0.776-0.611,1.028-1.078
			s0.378-1.008,0.378-1.624S170.866,498.836,170.614,498.37z"/>
		
			<pattern  id="SVGID_00000034063725550737524790000009051585270376757143_" xlink:href="#New_Pattern_Swatch_1" patternTransform="matrix(1 0 0 1 24.5406 -75.053)">
		</pattern>
		<path style="fill:url(#SVGID_00000034063725550737524790000009051585270376757143_);" d="M179.295,496.564
			c0.532,0.336,0.914,0.761,1.147,1.273v-1.666h0.98v7.84c0,0.7-0.152,1.321-0.455,1.862c-0.304,0.541-0.726,0.959-1.267,1.253
			c-0.542,0.294-1.158,0.441-1.849,0.441c-0.979,0-1.794-0.233-2.442-0.7c-0.649-0.467-1.053-1.102-1.211-1.904h0.966
			c0.168,0.532,0.487,0.957,0.959,1.274c0.471,0.317,1.047,0.476,1.729,0.476c0.495,0,0.938-0.104,1.33-0.314
			c0.393-0.21,0.7-0.521,0.924-0.932c0.225-0.41,0.336-0.896,0.336-1.456v-1.89c-0.242,0.522-0.627,0.954-1.154,1.295
			s-1.15,0.511-1.869,0.511c-0.7,0-1.328-0.163-1.883-0.489c-0.556-0.327-0.99-0.789-1.303-1.387
			c-0.312-0.597-0.469-1.287-0.469-2.071s0.156-1.473,0.469-2.065s0.747-1.05,1.303-1.372c0.555-0.322,1.183-0.482,1.883-0.482
			C178.138,496.06,178.763,496.228,179.295,496.564z M180.064,498.37c-0.252-0.467-0.595-0.826-1.028-1.078
			c-0.435-0.252-0.913-0.378-1.436-0.378c-0.541,0-1.026,0.121-1.456,0.364c-0.429,0.242-0.768,0.595-1.015,1.057
			s-0.371,1.011-0.371,1.646c0,0.625,0.124,1.174,0.371,1.645c0.247,0.472,0.586,0.831,1.015,1.078
			c0.43,0.247,0.915,0.371,1.456,0.371c0.522,0,1.001-0.126,1.436-0.378c0.434-0.252,0.776-0.611,1.028-1.078
			s0.378-1.008,0.378-1.624S180.316,498.836,180.064,498.37z"/>
		
			<pattern  id="SVGID_00000166640135018567536090000012183032555944348555_" xlink:href="#New_Pattern_Swatch_1" patternTransform="matrix(1 0 0 1 24.5406 -75.053)">
		</pattern>
		<path style="fill:url(#SVGID_00000166640135018567536090000012183032555944348555_);" d="M190.551,500.372h-6.342
			c0.028,0.579,0.168,1.073,0.42,1.484c0.252,0.41,0.583,0.721,0.994,0.931c0.41,0.21,0.858,0.315,1.344,0.315
			c0.635,0,1.169-0.154,1.604-0.462c0.434-0.309,0.721-0.724,0.86-1.246h1.036c-0.187,0.746-0.586,1.355-1.197,1.826
			c-0.611,0.472-1.379,0.707-2.303,0.707c-0.719,0-1.362-0.16-1.932-0.482s-1.016-0.779-1.337-1.372
			c-0.322-0.593-0.483-1.286-0.483-2.079s0.159-1.488,0.477-2.086c0.316-0.598,0.76-1.055,1.329-1.372s1.219-0.476,1.946-0.476
			c0.729,0,1.365,0.158,1.911,0.476s0.966,0.744,1.26,1.281c0.294,0.536,0.441,1.132,0.441,1.785
			C190.579,499.938,190.569,500.195,190.551,500.372z M189.242,498.118c-0.238-0.401-0.562-0.705-0.974-0.91
			c-0.41-0.205-0.858-0.308-1.344-0.308c-0.728,0-1.349,0.233-1.862,0.7c-0.513,0.467-0.798,1.124-0.854,1.974h5.376
			C189.594,499.004,189.479,498.519,189.242,498.118z"/>
		
			<pattern  id="SVGID_00000002348568503035923450000013156636474253528231_" xlink:href="#New_Pattern_Swatch_1" patternTransform="matrix(1 0 0 1 24.5406 -75.053)">
		</pattern>
		<path style="fill:url(#SVGID_00000002348568503035923450000013156636474253528231_);" d="M192.399,497.915
			c0.316-0.593,0.753-1.05,1.309-1.372c0.555-0.322,1.183-0.482,1.883-0.482c0.672,0,1.278,0.163,1.82,0.489
			c0.541,0.327,0.938,0.752,1.189,1.274v-4.368h0.98v10.36h-0.98v-1.708c-0.233,0.532-0.615,0.968-1.147,1.309
			s-1.157,0.511-1.876,0.511c-0.7,0-1.328-0.163-1.883-0.489c-0.556-0.327-0.99-0.789-1.303-1.387
			c-0.312-0.597-0.469-1.287-0.469-2.071S192.082,498.507,192.399,497.915z M198.223,498.37c-0.252-0.467-0.595-0.826-1.028-1.078
			c-0.435-0.252-0.913-0.378-1.436-0.378c-0.541,0-1.026,0.121-1.456,0.364c-0.429,0.242-0.768,0.595-1.015,1.057
			s-0.371,1.011-0.371,1.646c0,0.625,0.124,1.174,0.371,1.645c0.247,0.472,0.586,0.831,1.015,1.078
			c0.43,0.247,0.915,0.371,1.456,0.371c0.522,0,1.001-0.126,1.436-0.378c0.434-0.252,0.776-0.611,1.028-1.078
			s0.378-1.008,0.378-1.624S198.475,498.836,198.223,498.37z"/>
		
			<pattern  id="SVGID_00000108288096091531819300000000518738791858772654_" xlink:href="#New_Pattern_Swatch_1" patternTransform="matrix(1 0 0 1 24.5406 -75.053)">
		</pattern>
		<path style="fill:url(#SVGID_00000108288096091531819300000000518738791858772654_);" d="M150.11,512.618
			c0.774,0.392,1.367,0.957,1.778,1.694c0.41,0.737,0.616,1.614,0.616,2.632c0,1.008-0.206,1.878-0.616,2.61
			c-0.411,0.733-1.004,1.293-1.778,1.681s-1.703,0.581-2.786,0.581h-2.897v-9.786h2.897
			C148.407,512.03,149.336,512.226,150.11,512.618z M150.439,519.933c0.714-0.715,1.071-1.711,1.071-2.989
			c0-1.288-0.357-2.294-1.071-3.018c-0.714-0.723-1.752-1.085-3.115-1.085h-1.918v8.162h1.918
			C148.688,521.003,149.726,520.647,150.439,519.933z"/>
		
			<pattern  id="SVGID_00000175300471123394908470000005150188605565191059_" xlink:href="#New_Pattern_Swatch_1" patternTransform="matrix(1 0 0 1 24.5406 -75.053)">
		</pattern>
		<path style="fill:url(#SVGID_00000175300471123394908470000005150188605565191059_);" d="M155.718,521.445
			c-0.574-0.322-1.027-0.779-1.358-1.372s-0.497-1.286-0.497-2.079s0.168-1.486,0.504-2.079s0.793-1.05,1.372-1.372
			s1.228-0.482,1.946-0.482s1.369,0.16,1.953,0.482c0.583,0.322,1.04,0.779,1.372,1.372c0.331,0.593,0.497,1.286,0.497,2.079
			c0,0.784-0.168,1.475-0.505,2.072c-0.336,0.597-0.798,1.057-1.386,1.379s-1.241,0.482-1.96,0.482S156.291,521.767,155.718,521.445
			z M159.057,520.731c0.429-0.229,0.776-0.574,1.043-1.036c0.266-0.462,0.398-1.029,0.398-1.701s-0.131-1.239-0.392-1.701
			c-0.262-0.462-0.606-0.807-1.036-1.036c-0.43-0.229-0.896-0.343-1.399-0.343c-0.505,0-0.972,0.114-1.4,0.343
			c-0.43,0.229-0.772,0.574-1.029,1.036s-0.385,1.029-0.385,1.701s0.128,1.239,0.385,1.701s0.598,0.808,1.022,1.036
			s0.889,0.343,1.393,0.343S158.627,520.959,159.057,520.731z"/>
		
			<pattern  id="SVGID_00000158023420327116970470000006744438368077991584_" xlink:href="#New_Pattern_Swatch_1" patternTransform="matrix(1 0 0 1 24.5406 -75.053)">
		</pattern>
		<path style="fill:url(#SVGID_00000158023420327116970470000006744438368077991584_);" d="M164.335,523.622
			c0,0.616-0.154,1.071-0.462,1.365c-0.309,0.294-0.771,0.44-1.387,0.44h-0.686v-0.84h0.532c0.363,0,0.625-0.077,0.784-0.23
			c0.158-0.154,0.237-0.413,0.237-0.777v-9.408h0.98V523.622z M163.354,512.52c-0.14-0.141-0.21-0.312-0.21-0.519
			c0-0.205,0.07-0.375,0.21-0.511c0.141-0.135,0.309-0.203,0.504-0.203c0.196,0,0.362,0.068,0.497,0.203
			c0.136,0.136,0.203,0.306,0.203,0.511c0,0.206-0.067,0.378-0.203,0.519c-0.135,0.14-0.301,0.21-0.497,0.21
			C163.663,512.73,163.495,512.66,163.354,512.52z"/>
		
			<pattern  id="SVGID_00000005967287629089769330000017647404463274684071_" xlink:href="#New_Pattern_Swatch_1" patternTransform="matrix(1 0 0 1 24.5406 -75.053)">
		</pattern>
		<path style="fill:url(#SVGID_00000005967287629089769330000017647404463274684071_);" d="M166.562,512.52
			c-0.141-0.141-0.21-0.312-0.21-0.519c0-0.205,0.069-0.375,0.21-0.511c0.14-0.135,0.308-0.203,0.504-0.203
			c0.195,0,0.363,0.068,0.504,0.203c0.14,0.136,0.21,0.306,0.21,0.511c0,0.206-0.07,0.378-0.21,0.519
			c-0.141,0.14-0.309,0.21-0.504,0.21C166.869,512.73,166.701,512.66,166.562,512.52z M167.555,514.171v7.645h-0.979v-7.645H167.555
			z"/>
	</g>
	<g>
		<rect x="373.556" y="491.916" class="st0" width="104.921" height="39.24"/>
		
			<pattern  id="SVGID_00000026153086186031576400000013961401704866469022_" xlink:href="#New_Pattern_Swatch_1" patternTransform="matrix(1 0 0 1 86.5734 -75.053)">
		</pattern>
		<path style="fill:url(#SVGID_00000026153086186031576400000013961401704866469022_);" d="M399.277,494.618
			c0.774,0.392,1.367,0.957,1.778,1.694c0.41,0.737,0.616,1.614,0.616,2.632c0,1.008-0.206,1.878-0.616,2.61
			c-0.411,0.733-1.004,1.293-1.778,1.681s-1.703,0.581-2.786,0.581h-2.897v-9.786h2.897
			C397.574,494.03,398.503,494.226,399.277,494.618z M399.606,501.933c0.714-0.715,1.071-1.711,1.071-2.989
			c0-1.288-0.357-2.294-1.071-3.018c-0.714-0.723-1.752-1.085-3.115-1.085h-1.918v8.162h1.918
			C397.854,503.003,398.893,502.647,399.606,501.933z"/>
		
			<pattern  id="SVGID_00000036942407372056543530000009868724814762729146_" xlink:href="#New_Pattern_Swatch_1" patternTransform="matrix(1 0 0 1 86.5734 -75.053)">
		</pattern>
		<path style="fill:url(#SVGID_00000036942407372056543530000009868724814762729146_);" d="M405.444,496.423
			c0.443-0.261,0.987-0.392,1.631-0.392v1.021h-0.266c-0.71,0-1.279,0.191-1.708,0.574c-0.43,0.383-0.645,1.022-0.645,1.918v4.271
			h-0.979v-7.645h0.979v1.358C404.672,497.053,405.001,496.685,405.444,496.423z"/>
		
			<pattern  id="SVGID_00000099631723389354783140000016323382051637867675_" xlink:href="#New_Pattern_Swatch_1" patternTransform="matrix(1 0 0 1 86.5734 -75.053)">
		</pattern>
		<path style="fill:url(#SVGID_00000099631723389354783140000016323382051637867675_);" d="M408.566,497.915
			c0.312-0.593,0.747-1.05,1.303-1.372c0.555-0.322,1.183-0.482,1.883-0.482c0.728,0,1.355,0.168,1.883,0.504
			s0.907,0.765,1.141,1.288v-1.681h0.98v7.645h-0.98v-1.694c-0.242,0.522-0.627,0.954-1.154,1.295s-1.155,0.511-1.884,0.511
			c-0.69,0-1.313-0.163-1.868-0.489c-0.556-0.327-0.99-0.789-1.303-1.387c-0.312-0.597-0.469-1.287-0.469-2.071
			S408.254,498.507,408.566,497.915z M414.397,498.37c-0.252-0.467-0.595-0.826-1.028-1.078c-0.435-0.252-0.913-0.378-1.436-0.378
			c-0.541,0-1.026,0.121-1.456,0.364c-0.429,0.242-0.768,0.595-1.015,1.057s-0.371,1.011-0.371,1.646
			c0,0.625,0.124,1.174,0.371,1.645c0.247,0.472,0.586,0.831,1.015,1.078c0.43,0.247,0.915,0.371,1.456,0.371
			c0.522,0,1.001-0.126,1.436-0.378c0.434-0.252,0.776-0.611,1.028-1.078s0.378-1.008,0.378-1.624S414.649,498.836,414.397,498.37z"
			/>
		
			<pattern  id="SVGID_00000162324443200709692350000005607978578175503008_" xlink:href="#New_Pattern_Swatch_1" patternTransform="matrix(1 0 0 1 86.5734 -75.053)">
		</pattern>
		<path style="fill:url(#SVGID_00000162324443200709692350000005607978578175503008_);" d="M423.078,496.564
			c0.532,0.336,0.914,0.761,1.147,1.273v-1.666h0.98v7.84c0,0.7-0.152,1.321-0.455,1.862c-0.304,0.541-0.726,0.959-1.267,1.253
			c-0.542,0.294-1.158,0.441-1.849,0.441c-0.979,0-1.794-0.233-2.442-0.7c-0.649-0.467-1.053-1.102-1.211-1.904h0.966
			c0.168,0.532,0.487,0.957,0.959,1.274c0.471,0.317,1.047,0.476,1.729,0.476c0.495,0,0.938-0.104,1.33-0.314
			c0.393-0.21,0.7-0.521,0.924-0.932c0.225-0.41,0.336-0.896,0.336-1.456v-1.89c-0.242,0.522-0.627,0.954-1.154,1.295
			s-1.15,0.511-1.869,0.511c-0.7,0-1.328-0.163-1.883-0.489c-0.556-0.327-0.99-0.789-1.303-1.387
			c-0.312-0.597-0.469-1.287-0.469-2.071s0.156-1.473,0.469-2.065s0.747-1.05,1.303-1.372c0.555-0.322,1.183-0.482,1.883-0.482
			C421.921,496.06,422.546,496.228,423.078,496.564z M423.848,498.37c-0.252-0.467-0.595-0.826-1.028-1.078
			c-0.435-0.252-0.913-0.378-1.436-0.378c-0.541,0-1.026,0.121-1.456,0.364c-0.429,0.242-0.768,0.595-1.015,1.057
			s-0.371,1.011-0.371,1.646c0,0.625,0.124,1.174,0.371,1.645c0.247,0.472,0.586,0.831,1.015,1.078
			c0.43,0.247,0.915,0.371,1.456,0.371c0.522,0,1.001-0.126,1.436-0.378c0.434-0.252,0.776-0.611,1.028-1.078
			s0.378-1.008,0.378-1.624S424.1,498.836,423.848,498.37z"/>
		
			<pattern  id="SVGID_00000170241099454825973030000010372573998940460720_" xlink:href="#New_Pattern_Swatch_1" patternTransform="matrix(1 0 0 1 86.5734 -75.053)">
		</pattern>
		<path style="fill:url(#SVGID_00000170241099454825973030000010372573998940460720_);" d="M428.854,503.445
			c-0.574-0.322-1.027-0.779-1.358-1.372s-0.497-1.286-0.497-2.079s0.168-1.486,0.504-2.079s0.793-1.05,1.372-1.372
			s1.228-0.482,1.946-0.482s1.369,0.16,1.953,0.482c0.583,0.322,1.04,0.779,1.372,1.372c0.331,0.593,0.497,1.286,0.497,2.079
			c0,0.784-0.168,1.475-0.505,2.072c-0.336,0.597-0.798,1.057-1.386,1.379s-1.241,0.482-1.96,0.482S429.427,503.767,428.854,503.445
			z M432.192,502.731c0.429-0.229,0.776-0.574,1.043-1.036c0.266-0.462,0.398-1.029,0.398-1.701s-0.131-1.239-0.392-1.701
			c-0.262-0.462-0.606-0.807-1.036-1.036c-0.43-0.229-0.896-0.343-1.399-0.343c-0.505,0-0.972,0.114-1.4,0.343
			c-0.43,0.229-0.772,0.574-1.029,1.036s-0.385,1.029-0.385,1.701s0.128,1.239,0.385,1.701s0.598,0.808,1.022,1.036
			s0.889,0.343,1.393,0.343S431.763,502.959,432.192,502.731z"/>
		
			<pattern  id="SVGID_00000027578541197729277550000008659923440637395335_" xlink:href="#New_Pattern_Swatch_1" patternTransform="matrix(1 0 0 1 86.5734 -75.053)">
		</pattern>
		<path style="fill:url(#SVGID_00000027578541197729277550000008659923440637395335_);" d="M442.259,496.878
			c0.578,0.565,0.867,1.384,0.867,2.457v4.48h-0.966v-4.368c0-0.831-0.207-1.465-0.623-1.904c-0.415-0.438-0.982-0.658-1.7-0.658
			c-0.738,0-1.326,0.233-1.765,0.7s-0.658,1.153-0.658,2.059v4.172h-0.979v-7.645h0.979v1.303c0.243-0.467,0.593-0.824,1.051-1.071
			c0.457-0.247,0.975-0.371,1.554-0.371C440.933,496.032,441.68,496.314,442.259,496.878z"/>
		
			<pattern  id="SVGID_00000129177658839729778530000002515266855925083053_" xlink:href="#New_Pattern_Swatch_1" patternTransform="matrix(1 0 0 1 86.5734 -75.053)">
		</pattern>
		<path style="fill:url(#SVGID_00000129177658839729778530000002515266855925083053_);" d="M448.307,496.998h-1.778v6.818h-0.979
			v-6.818h-1.064v-0.826h1.064v-0.531c0-0.831,0.212-1.442,0.637-1.834c0.425-0.393,1.113-0.589,2.065-0.589v0.841
			c-0.635,0-1.081,0.121-1.337,0.363c-0.257,0.243-0.386,0.649-0.386,1.219v0.531h1.778V496.998z"/>
		
			<pattern  id="SVGID_00000114033355171413729360000000937762684218633658_" xlink:href="#New_Pattern_Swatch_1" patternTransform="matrix(1 0 0 1 86.5734 -75.053)">
		</pattern>
		<path style="fill:url(#SVGID_00000114033355171413729360000000937762684218633658_);" d="M450.826,493.456v10.36h-0.979v-10.36
			H450.826z"/>
		
			<pattern  id="SVGID_00000122692874684757791100000007063714210629781693_" xlink:href="#New_Pattern_Swatch_1" patternTransform="matrix(1 0 0 1 86.5734 -75.053)">
		</pattern>
		<path style="fill:url(#SVGID_00000122692874684757791100000007063714210629781693_);" d="M459.353,496.171l-4.536,11.242h-1.021
			l1.483-3.64l-3.136-7.603h1.078l2.604,6.524l2.521-6.524H459.353z"/>
		
			<pattern  id="SVGID_00000181089712314081453960000007538885171440426937_" xlink:href="#New_Pattern_Swatch_1" patternTransform="matrix(1 0 0 1 86.5734 -75.053)">
		</pattern>
		<path style="fill:url(#SVGID_00000181089712314081453960000007538885171440426937_);" d="M420.144,512.618
			c0.774,0.392,1.367,0.957,1.778,1.694c0.41,0.737,0.616,1.614,0.616,2.632c0,1.008-0.206,1.878-0.616,2.61
			c-0.411,0.733-1.004,1.293-1.778,1.681s-1.703,0.581-2.786,0.581h-2.897v-9.786h2.897
			C418.44,512.03,419.369,512.226,420.144,512.618z M420.473,519.933c0.714-0.715,1.071-1.711,1.071-2.989
			c0-1.288-0.357-2.294-1.071-3.018c-0.714-0.723-1.752-1.085-3.115-1.085h-1.918v8.162h1.918
			C418.721,521.003,419.759,520.647,420.473,519.933z"/>
		
			<pattern  id="SVGID_00000165943788366087164110000001397010896713902499_" xlink:href="#New_Pattern_Swatch_1" patternTransform="matrix(1 0 0 1 86.5734 -75.053)">
		</pattern>
		<path style="fill:url(#SVGID_00000165943788366087164110000001397010896713902499_);" d="M425.751,521.445
			c-0.574-0.322-1.027-0.779-1.358-1.372s-0.497-1.286-0.497-2.079s0.168-1.486,0.504-2.079s0.793-1.05,1.372-1.372
			s1.228-0.482,1.946-0.482s1.369,0.16,1.953,0.482c0.583,0.322,1.04,0.779,1.372,1.372c0.331,0.593,0.497,1.286,0.497,2.079
			c0,0.784-0.168,1.475-0.505,2.072c-0.336,0.597-0.798,1.057-1.386,1.379s-1.241,0.482-1.96,0.482S426.324,521.767,425.751,521.445
			z M429.09,520.731c0.429-0.229,0.776-0.574,1.043-1.036c0.266-0.462,0.398-1.029,0.398-1.701s-0.131-1.239-0.392-1.701
			c-0.262-0.462-0.606-0.807-1.036-1.036c-0.43-0.229-0.896-0.343-1.399-0.343c-0.505,0-0.972,0.114-1.4,0.343
			c-0.43,0.229-0.772,0.574-1.029,1.036s-0.385,1.029-0.385,1.701s0.128,1.239,0.385,1.701s0.598,0.808,1.022,1.036
			s0.889,0.343,1.393,0.343S428.66,520.959,429.09,520.731z"/>
		
			<pattern  id="SVGID_00000101065060524902012530000000859588459497851050_" xlink:href="#New_Pattern_Swatch_1" patternTransform="matrix(1 0 0 1 86.5734 -75.053)">
		</pattern>
		<path style="fill:url(#SVGID_00000101065060524902012530000000859588459497851050_);" d="M434.368,523.622
			c0,0.616-0.154,1.071-0.462,1.365c-0.309,0.294-0.771,0.44-1.387,0.44h-0.686v-0.84h0.532c0.363,0,0.625-0.077,0.784-0.23
			c0.158-0.154,0.237-0.413,0.237-0.777v-9.408h0.98V523.622z M433.388,512.52c-0.14-0.141-0.21-0.312-0.21-0.519
			c0-0.205,0.07-0.375,0.21-0.511c0.141-0.135,0.309-0.203,0.504-0.203c0.196,0,0.362,0.068,0.497,0.203
			c0.136,0.136,0.203,0.306,0.203,0.511c0,0.206-0.067,0.378-0.203,0.519c-0.135,0.14-0.301,0.21-0.497,0.21
			C433.696,512.73,433.528,512.66,433.388,512.52z"/>
		
			<pattern  id="SVGID_00000165920934305372641480000015652367428349790649_" xlink:href="#New_Pattern_Swatch_1" patternTransform="matrix(1 0 0 1 86.5734 -75.053)">
		</pattern>
		<path style="fill:url(#SVGID_00000165920934305372641480000015652367428349790649_);" d="M436.595,512.52
			c-0.141-0.141-0.21-0.312-0.21-0.519c0-0.205,0.069-0.375,0.21-0.511c0.14-0.135,0.308-0.203,0.504-0.203
			c0.195,0,0.363,0.068,0.504,0.203c0.14,0.136,0.21,0.306,0.21,0.511c0,0.206-0.07,0.378-0.21,0.519
			c-0.141,0.14-0.309,0.21-0.504,0.21C436.902,512.73,436.734,512.66,436.595,512.52z M437.588,514.171v7.645h-0.979v-7.645H437.588
			z"/>
	</g>
	<g>
		
			<pattern  id="SVGID_00000055681037762470435050000006095816129916489913_" xlink:href="#New_Pattern_Swatch_1" patternTransform="matrix(1.4314 0 0 1.4314 2821.6362 3394.1953)">
		</pattern>
		
			<line style="fill:none;stroke:url(#SVGID_00000055681037762470435050000006095816129916489913_);stroke-width:1.25;stroke-miterlimit:10;" x1="205.054" y1="122.131" x2="205.054" y2="237.801"/>
		<g>
			<rect x="173.234" y="174.182" class="st81" width="63.638" height="13.085"/>
			
				<pattern  id="SVGID_00000043454583877109216690000015678858871760210576_" xlink:href="#New_Pattern_Swatch_1" patternTransform="matrix(1.4314 0 0 1.4314 2719.1379 3394.1953)">
			</pattern>
			<path style="fill:url(#SVGID_00000043454583877109216690000015678858871760210576_);" d="M235.373,175.682v10.085h-60.638
				v-10.085H235.373 M236.873,174.182h-63.638v13.085h63.638V174.182L236.873,174.182z"/>
		</g>
	</g>
</g>
</svg>
